<?xml version="1.0" encoding="UTF-8" standalone="no"?>
<!-- Created with Inkscape (http://www.inkscape.org/) -->

<svg
   xmlns:ns0="http://www.iki.fi/pav/software/textext/"
   xmlns:dc="http://purl.org/dc/elements/1.1/"
   xmlns:cc="http://creativecommons.org/ns#"
   xmlns:rdf="http://www.w3.org/1999/02/22-rdf-syntax-ns#"
   xmlns:svg="http://www.w3.org/2000/svg"
   xmlns="http://www.w3.org/2000/svg"
   xmlns:sodipodi="http://sodipodi.sourceforge.net/DTD/sodipodi-0.dtd"
   xmlns:inkscape="http://www.inkscape.org/namespaces/inkscape"
   width="424.9375"
   height="312.4375"
   id="svg2"
   version="1.1"
   inkscape:version="0.48.0 r9654"
   sodipodi:docname="New document 1">
  <sodipodi:namedview
     id="base"
     pagecolor="#ffffff"
     bordercolor="#666666"
     borderopacity="1.0"
     inkscape:pageopacity="0.0"
     inkscape:pageshadow="2"
     inkscape:zoom="0.35"
     inkscape:cx="194.9911"
     inkscape:cy="53.030817"
     inkscape:document-units="px"
     inkscape:current-layer="layer1"
     showgrid="false"
     inkscape:window-width="1366"
     inkscape:window-height="691"
     inkscape:window-x="0"
     inkscape:window-y="24"
     inkscape:window-maximized="1"
     fit-margin-top="2"
     fit-margin-left="2"
     fit-margin-right="2"
     fit-margin-bottom="2" />
  <defs
     id="defs4" />
  <metadata
     id="metadata7">
    <rdf:RDF>
      <cc:Work
         rdf:about="">
        <dc:format>image/svg+xml</dc:format>
        <dc:type
           rdf:resource="http://purl.org/dc/dcmitype/StillImage" />
        <dc:title></dc:title>
      </cc:Work>
    </rdf:RDF>
  </metadata>
  <g
     id="layer1"
     inkscape:groupmode="layer"
     inkscape:label="Layer 1"
     transform="translate(-180.0089,-272.9555)">
    <g
       ns0:preamble=""
       ns0:text="$q^{-1}$"
       word-spacing="normal"
       letter-spacing="normal"
       font-size-adjust="none"
       font-stretch="normal"
       font-weight="normal"
       font-variant="normal"
       font-style="normal"
       stroke-miterlimit="10.433"
       xml:space="preserve"
       transform="matrix(30,0,0,-30,-6531.4286,21737.143)"
       id="content"
       style="font-style:normal;font-variant:normal;font-weight:normal;font-stretch:normal;letter-spacing:normal;word-spacing:normal;text-anchor:start;fill:#000000;stroke:#000000;stroke-linecap:butt;stroke-linejoin:miter;stroke-miterlimit:10.43299961;stroke-opacity:1;stroke-dasharray:none;stroke-dashoffset:0">
<path
   id="path2991"
   d="m 227.94,711.42 0,0 0,0 0,0.01 -0.01,0 0,0.01 0,0 0,0 0,0.01 0,0 0,0.01 -0.01,0 0,0.01 0,0 0,0 0,0.01 -0.01,0 0,0 0,0.01 -0.01,0 0,0 -0.01,0.01 0,0 0,0 -0.01,0.01 0,0 -0.01,0 0,0 -0.01,0 -0.01,0 0,0.01 -0.01,0 0,0 c -0.11,0 -0.51,-0.4 -0.68,-0.69 -0.22,0.54 -0.61,0.7 -0.93,0.7 v -0.22 c 0.65,0 0.79,-0.81 0.79,-0.88 0,-0.06 -0.55,-2.24 -0.58,-2.28 -0.15,-0.28 -0.71,-0.92 -1.26,-0.92 h 0 c -0.6,0 -0.64,0.77 -0.64,0.94 0,0.48 0.29,1.56 0.46,1.98 0.3,0.74 0.82,1.16 1.23,1.16 v 0.22 c -1.17,0 -2.4,-1.48 -2.4,-2.92 0,-0.98 0.59,-1.6 1.32,-1.6 0.42,0 0.81,0.24 1.17,0.6 -0.09,-0.35 -0.42,-1.69 -0.45,-1.78 -0.08,-0.28 -0.16,-0.32 -0.71,-0.33 -0.13,0 -0.23,0 -0.23,-0.2 0,-0.01 0,-0.11 0.13,-0.11 0.32,0 0.66,0.03 0.99,0.03 0.34,0 0.7,-0.03 1.03,-0.03 0.05,0 0.18,0 0.18,0.2 0,0.11 -0.1,0.11 -0.26,0.11 -0.48,0 -0.48,0.07 -0.48,0.16 0,0.07 0.02,0.13 0.04,0.22 z"
   inkscape:connector-curvature="0"
   style="fill:#000000;stroke-width:0" />
<path
   id="path2993"
   d="m 233.43,712.31 0.01,0 0.01,0 0.01,0 0.01,0 0.03,0.01 0.01,0 0.01,0 0.01,0 0.01,0 0.01,0 0.02,0 0.01,0.01 0.01,0 0.01,0 0.01,0 0.01,0.01 0.01,0 0.01,0.01 0.01,0 0.01,0.01 0,0.01 0.01,0.01 0.01,0 0,0 0,0.01 0.01,0 0,0.01 0,0 0,0.01 0.01,0 0,0.01 0,0.01 0,0 0,0.01 0,0 0.01,0.01 0,0.01 0,0.01 0,0 0,0.01 c 0,0.18 -0.16,0.18 -0.28,0.18 h -4.16 c -0.11,0 -0.28,0 -0.28,-0.17 0,-0.18 0.16,-0.18 0.28,-0.18 z"
   inkscape:connector-curvature="0"
   style="fill:#000000;stroke-width:0" />
<path
   id="path2995"
   d="m 236.8,715.17 0,0.01 0,0.01 0,0.01 0,0.01 0,0 0,0.01 0,0.01 0,0.01 0,0 0,0.01 0,0 0,0.01 0,0.01 0,0 0,0.01 0,0 -0.01,0.01 0,0 0,0.01 0,0.01 0,0.01 -0.01,0 0,0.01 -0.01,0.01 0,0 -0.01,0.01 0,0 -0.01,0 -0.01,0.01 0,0 -0.01,0 -0.01,0 -0.01,0 0,0 -0.01,0 0,0.01 -0.01,0 -0.01,0 0,0 -0.01,0 -0.01,0 0,0 -0.01,0 -0.01,0 -0.01,0 0,0 -0.01,0 -0.01,0 -0.01,0 -0.01,0 c -0.44,-0.44 -1.08,-0.45 -1.36,-0.45 v -0.25 c 0.16,0 0.62,0 1.01,0.2 v -3.56 c 0,-0.23 0,-0.32 -0.7,-0.32 h -0.27 v -0.25 c 0.13,0 0.99,0.03 1.24,0.03 0.22,0 1.1,-0.03 1.25,-0.03 v 0.25 h -0.26 c -0.7,0 -0.7,0.09 -0.7,0.32 z"
   inkscape:connector-curvature="0"
   style="fill:#000000;stroke-width:0" />
</g>  </g>
</svg>
