<?xml version="1.0" encoding="UTF-8" standalone="no"?>
<!-- Created with Inkscape (http://www.inkscape.org/) -->

<svg
   xmlns:ns0="http://www.iki.fi/pav/software/textext/"
   xmlns:dc="http://purl.org/dc/elements/1.1/"
   xmlns:cc="http://creativecommons.org/ns#"
   xmlns:rdf="http://www.w3.org/1999/02/22-rdf-syntax-ns#"
   xmlns:svg="http://www.w3.org/2000/svg"
   xmlns="http://www.w3.org/2000/svg"
   xmlns:sodipodi="http://sodipodi.sourceforge.net/DTD/sodipodi-0.dtd"
   xmlns:inkscape="http://www.inkscape.org/namespaces/inkscape"
   width="17.28125"
   height="10.906443"
   id="svg2"
   version="1.1"
   inkscape:version="0.48.0 r9654"
   sodipodi:docname="constant.svg">
  <sodipodi:namedview
     id="base"
     pagecolor="#ffffff"
     bordercolor="#666666"
     borderopacity="1.0"
     inkscape:pageopacity="0.0"
     inkscape:pageshadow="2"
     inkscape:zoom="2.56"
     inkscape:cx="26.332288"
     inkscape:cy="60.038864"
     inkscape:document-units="px"
     inkscape:current-layer="layer1"
     showgrid="false"
     fit-margin-top="2"
     fit-margin-left="2"
     fit-margin-right="2"
     fit-margin-bottom="2"
     inkscape:window-width="1366"
     inkscape:window-height="691"
     inkscape:window-x="0"
     inkscape:window-y="24"
     inkscape:window-maximized="1" />
  <defs
     id="defs4" />
  <metadata
     id="metadata7">
    <rdf:RDF>
      <cc:Work
         rdf:about="">
        <dc:format>image/svg+xml</dc:format>
        <dc:type
           rdf:resource="http://purl.org/dc/dcmitype/StillImage" />
        <dc:title />
      </cc:Work>
    </rdf:RDF>
  </metadata>
  <g
     transform="translate(-234.7625,-418.58733)"
     id="layer1"
     inkscape:groupmode="layer"
     inkscape:label="Layer 1">
    <g
       style="font-style:normal;font-variant:normal;font-weight:normal;font-stretch:normal;letter-spacing:normal;word-spacing:normal;text-anchor:start;fill:#0000ff;stroke:#000000;stroke-linecap:butt;stroke-linejoin:miter;stroke-miterlimit:10.43299961;stroke-opacity:1;stroke-dasharray:none;stroke-dashoffset:0"
       ns0:preamble=""
       ns0:text="$*K$"
       word-spacing="normal"
       letter-spacing="normal"
       font-size-adjust="none"
       font-stretch="normal"
       font-weight="normal"
       font-variant="normal"
       font-style="normal"
       stroke-miterlimit="10.433"
       xml:space="preserve"
       transform="matrix(1,0,0,-1,12.731251,1134.5562)"
       id="content">
<path
   style="fill:#0000ff;stroke-width:0"
   inkscape:connector-curvature="0"
   id="path3028"
   d="m 226.17,711.38 0,0.01 0,0.01 0,0.02 0,0.01 0.01,0.02 -0.01,0.01 0,0.02 0,0.01 0,0.02 0,0.02 0,0.01 0,0.02 -0.01,0.01 0,0.02 -0.01,0.01 0,0.02 -0.01,0.01 0,0.02 -0.01,0.01 -0.01,0.01 -0.01,0.01 -0.01,0.02 -0.01,0 0,0.01 -0.01,0 -0.01,0.01 0,0 -0.01,0 -0.01,0.01 -0.01,0 -0.01,0.01 0,0 -0.01,0 -0.01,0 -0.01,0.01 -0.01,0 -0.01,0 -0.01,0 -0.01,0 -0.01,0 -0.02,0 -0.01,0.01 c -0.16,0 -0.29,-0.13 -0.26,-0.26 v -0.13 l 0.14,-1.55 -1.27,0.93 c -0.09,0.05 -0.11,0.07 -0.18,0.07 -0.14,0 -0.27,-0.14 -0.27,-0.28 0,-0.16 0.1,-0.2 0.2,-0.25 l 1.41,-0.68 -1.37,-0.66 c -0.16,-0.08 -0.24,-0.12 -0.24,-0.27 0,-0.15 0.13,-0.28 0.27,-0.28 0.07,0 0.09,0 0.34,0.19 l 1.11,0.8 -0.15,-1.67 c 0,-0.21 0.18,-0.26 0.26,-0.26 0.12,0 0.27,0.07 0.27,0.26 l -0.15,1.67 1.28,-0.92 c 0.09,-0.05 0.11,-0.07 0.18,-0.07 0.14,0 0.27,0.14 0.27,0.28 0,0.15 -0.09,0.2 -0.21,0.26 -0.6,0.29 -0.62,0.29 -1.41,0.66 l 1.38,0.67 c 0.16,0.08 0.24,0.12 0.24,0.27 0,0.15 -0.13,0.28 -0.27,0.28 -0.07,0 -0.09,0 -0.34,-0.19 l -1.12,-0.81 z" />
<path
   style="fill:#0000ff;stroke-width:0"
   inkscape:connector-curvature="0"
   id="path3030"
   d="m 233.48,711.15 0,0 0,0 0,0.01 0,0 0,0 0,0.01 -0.01,0 0,0.01 0,0 0,0.01 0,0 -0.01,0.01 0,0.01 0,0.01 -0.01,0.01 0,0.01 0,0 -0.01,0.01 0,0 0,0.01 0,0 0,0.01 0,0 0,0 0,0.01 -0.01,0 0,0 0,0.01 c 0,0.01 0.18,0.15 0.29,0.23 l 1.75,1.34 c 0.93,0.69 1.32,0.73 1.62,0.76 0.08,0.01 0.18,0.02 0.18,0.2 0,0.04 -0.03,0.11 -0.11,0.11 -0.22,0 -0.47,-0.03 -0.71,-0.03 -0.36,0 -0.74,0.03 -1.1,0.03 -0.07,0 -0.19,0 -0.19,-0.2 0,-0.07 0.05,-0.1 0.12,-0.11 0.22,-0.02 0.31,-0.07 0.31,-0.21 0,-0.18 -0.3,-0.41 -0.36,-0.46 l -3.89,-2.99 0.8,3.2 c 0.09,0.36 0.11,0.46 0.84,0.46 0.24,0 0.33,0 0.33,0.2 0,0.09 -0.08,0.11 -0.13,0.11 -0.28,0 -1,-0.03 -1.28,-0.03 -0.29,0 -1,0.03 -1.29,0.03 -0.07,0 -0.2,0 -0.2,-0.19 0,-0.12 0.1,-0.12 0.29,-0.12 0.13,0 0.31,-0.01 0.43,-0.02 0.16,-0.02 0.22,-0.05 0.22,-0.16 0,-0.04 -0.01,-0.07 -0.04,-0.19 l -1.33,-5.35 c -0.1,-0.39 -0.12,-0.47 -0.91,-0.47 -0.17,0 -0.28,0 -0.28,-0.19 0,-0.12 0.12,-0.12 0.15,-0.12 0.28,0 0.99,0.03 1.27,0.03 0.2,0 0.42,-0.01 0.63,-0.01 0.22,0 0.44,-0.02 0.65,-0.02 0.07,0 0.2,0 0.2,0.2 0,0.11 -0.09,0.11 -0.28,0.11 -0.37,0 -0.65,0 -0.65,0.18 0,0.07 0.06,0.29 0.09,0.44 0.14,0.52 0.27,1.04 0.4,1.56 l 1.49,1.16 1.15,-2.68 c 0.12,-0.27 0.12,-0.29 0.12,-0.35 0,-0.3 -0.43,-0.31 -0.52,-0.31 -0.11,0 -0.22,0 -0.22,-0.2 0,-0.11 0.12,-0.11 0.14,-0.11 0.4,0 0.82,0.03 1.22,0.03 0.22,0 0.76,-0.03 0.98,-0.03 0.04,0 0.18,0 0.18,0.2 0,0.11 -0.11,0.11 -0.2,0.11 -0.41,0.01 -0.54,0.1 -0.69,0.45 z" />
</g>  </g>
</svg>
