<?xml version="1.0" encoding="UTF-8" standalone="no"?>
<!-- Created with Inkscape (http://www.inkscape.org/) -->

<svg
   xmlns:dc="http://purl.org/dc/elements/1.1/"
   xmlns:cc="http://creativecommons.org/ns#"
   xmlns:rdf="http://www.w3.org/1999/02/22-rdf-syntax-ns#"
   xmlns:svg="http://www.w3.org/2000/svg"
   xmlns="http://www.w3.org/2000/svg"
   xmlns:sodipodi="http://sodipodi.sourceforge.net/DTD/sodipodi-0.dtd"
   xmlns:inkscape="http://www.inkscape.org/namespaces/inkscape"
   width="192.05627"
   height="187.38242"
   id="svg2"
   version="1.1"
   inkscape:version="0.47 r22583"
   sodipodi:docname="New document 1">
  <defs
     id="defs4">
    <inkscape:perspective
       sodipodi:type="inkscape:persp3d"
       inkscape:vp_x="0 : 526.18109 : 1"
       inkscape:vp_y="0 : 1000 : 0"
       inkscape:vp_z="744.09448 : 526.18109 : 1"
       inkscape:persp3d-origin="372.04724 : 350.78739 : 1"
       id="perspective10" />
    <inkscape:perspective
       id="perspective2884"
       inkscape:persp3d-origin="0.5 : 0.33333333 : 1"
       inkscape:vp_z="1 : 0.5 : 1"
       inkscape:vp_y="0 : 1000 : 0"
       inkscape:vp_x="0 : 0.5 : 1"
       sodipodi:type="inkscape:persp3d" />
  </defs>
  <sodipodi:namedview
     id="base"
     pagecolor="#ffffff"
     bordercolor="#666666"
     borderopacity="1.0"
     inkscape:pageopacity="0.0"
     inkscape:pageshadow="2"
     inkscape:zoom="0.7"
     inkscape:cx="-233.15607"
     inkscape:cy="87.814048"
     inkscape:document-units="px"
     inkscape:current-layer="layer1"
     showgrid="false"
     inkscape:window-width="1360"
     inkscape:window-height="717"
     inkscape:window-x="0"
     inkscape:window-y="24"
     inkscape:window-maximized="1" />
  <metadata
     id="metadata7">
    <rdf:RDF>
      <cc:Work
         rdf:about="">
        <dc:format>image/svg+xml</dc:format>
        <dc:type
           rdf:resource="http://purl.org/dc/dcmitype/StillImage" />
        <dc:title></dc:title>
      </cc:Work>
    </rdf:RDF>
  </metadata>
  <g
     inkscape:label="Layer 1"
     inkscape:groupmode="layer"
     id="layer1"
     transform="translate(-366.13123,-517.50119)">
    <path
       style="fill:#ec2f2f;fill-opacity:1;stroke:#db2424;stroke-opacity:1"
       d="m 463.83011,702.29481 c -17.57897,-4.92791 -31.51411,-16.59697 -39.82472,-33.34855 -3.33464,-6.72158 -3.85544,-10.21305 -3.86183,-25.88988 -0.007,-16.46091 0.40934,-18.96914 4.54279,-27.38596 5.61983,-11.44358 18.05599,-23.31924 30.50799,-29.13303 8.13965,-3.80036 11.54587,-4.39626 25.06906,-4.38565 14.25262,0.0115 16.62103,0.48499 26.53286,5.30826 20.59603,10.02237 33.00021,28.81902 34.12995,51.71873 1.09238,22.14274 -7.04151,40.35004 -23.59808,52.82308 -14.89342,11.22008 -35.82493,15.24731 -53.49802,10.293 z m 39.85219,-7.23806 c 37.87462,-18.11072 45.10349,-66.97528 14.03984,-94.9042 -28.02346,-25.19548 -73.51362,-15.35363 -89.48936,19.36117 -6.63999,14.42849 -6.81978,32.41096 -0.4597,45.97919 7.44187,15.87606 19.69622,27.15331 34.90379,32.12081 10.32014,3.37101 31.35087,2.05961 41.00543,-2.55697 z m -44.01042,-7.22146 c -10.13943,-4.90448 -19.33527,-14.0064 -24.27078,-24.02289 -5.13191,-10.41513 -5.23494,-30.55852 -0.21224,-41.49479 11.07657,-24.11779 41.13497,-35.1815 65.40067,-24.0723 6.26282,2.86722 9.32565,5.236 9.32565,7.21242 0,1.61864 -6.79874,9.77013 -15.10832,18.11441 -13.24116,13.29644 -14.83481,15.50096 -12.8951,17.83817 1.9693,2.37287 3.95533,0.9312 18.02061,-13.0813 8.69406,-8.66145 16.70825,-15.74808 17.8093,-15.74808 1.10107,0 4.00775,3.8918 6.45928,8.64844 8.83645,17.14502 5.25955,41.29988 -8.19269,55.32547 -10.05182,10.48026 -18.3052,14.0475 -33.98261,14.68788 -12.27475,0.50138 -15.19211,0.0567 -22.35377,-3.40743 z m 33.23051,-1.94093 c 24.88289,-7.38942 38.53981,-36.53395 28.28734,-60.36649 l -3.55136,-8.25533 -15.83414,15.77473 c -8.70879,8.67611 -16.60882,15.77473 -17.55563,15.77473 -0.94682,0 -3.86814,-2.24062 -6.49183,-4.97917 l -4.77037,-4.97918 16.40525,-16.48424 c 18.23498,-18.32279 18.16645,-17.71931 2.53971,-22.36514 -15.86189,-4.71575 -31.49722,-0.4407 -43.95665,12.01873 -22.97384,22.97384 -13.36908,62.43765 17.81802,73.21027 10.69351,3.69374 16.40225,3.83085 27.10966,0.65109 z M 366.63153,599.81419 c 0.0638,-5.52449 19.15446,-70.22963 20.89141,-70.80861 0.96248,-0.32083 5.68983,3.03939 10.50523,7.46716 l 8.75525,8.05047 7.50004,-5.76984 c 8.30209,-6.38689 26.53636,-15.30712 37.97547,-18.57765 4.07712,-1.16569 15.56719,-2.14389 25.53349,-2.17377 19.59017,-0.0588 34.21476,3.30779 51.02541,11.74598 12.23308,6.14044 28.86967,18.38751 28.86967,21.25247 0,2.60443 -9.83385,15.37401 -11.87944,15.42583 -0.64451,0.0165 -7.02079,-3.95298 -14.1695,-8.82071 -27.70032,-18.86179 -53.4424,-23.15485 -80.49768,-13.42478 -9.80277,3.52541 -26.88641,13.30679 -26.88641,15.394 0,0.55658 3.86064,4.92116 8.5792,9.69907 5.33503,5.40214 7.98246,9.25183 7.00112,10.18049 -1.66118,1.57202 -68.22952,23.2427 -71.3973,23.2427 -1.01161,0 -1.82428,-1.29726 -1.80596,-2.88281 z m 38.25459,-12.90577 29.22763,-9.66624 -8.63611,-8.81198 -8.63612,-8.81199 5.56035,-4.69832 c 19.32738,-16.33104 48.69519,-23.38335 74.66549,-17.93001 10.95688,2.30078 29.31979,10.79251 39.83553,18.42154 l 8.04349,5.83545 4.19751,-4.98844 4.19749,-4.98845 -4.0044,-3.1629 c -2.20241,-1.73962 -8.96673,-6.16626 -15.0318,-9.837 -38.01508,-23.00764 -83.892,-21.42165 -117.06608,4.04706 -4.31147,3.31004 -9.10183,6.01826 -10.64523,6.01826 -1.54341,0 -5.96924,-3.10427 -9.83514,-6.89838 -3.86592,-3.79411 -7.29205,-6.57396 -7.61362,-6.17745 -0.46349,0.57149 -13.52799,45.82751 -17.28919,59.89051 -0.59754,2.23428 -0.16423,2.90624 1.47862,2.29263 1.27818,-0.47743 15.47637,-5.21786 31.55158,-10.53429 z"
       id="path2890" />
  </g>
</svg>
