<?xml version="1.0" encoding="UTF-8" standalone="no"?>
<!-- Created with Inkscape (http://www.inkscape.org/) -->

<svg
   xmlns:svg="http://www.w3.org/2000/svg"
   xmlns="http://www.w3.org/2000/svg"
   version="1.1"
   width="233.07137"
   height="178.53494"
   id="svg2"
   xml:space="preserve"><defs
     id="defs6" /><g
     transform="matrix(1.25,0,0,-1.25,-109.07268,153.36301)"
     id="g12"><g
       transform="matrix(0.1,0,0,0.1,87.254236,-20.135593)"
       id="g14"><path
         d="m 793.48,694.359 39.68,-39.687 0,-555.4728 C 819.922,46.2695 786.84,13.1797 733.949,-0.0195312 L 674.57,158.73 l 0,416.559 118.91,119.07 z m -99.07,-694.3785312 -595.1483,0 C 46.3281,13.1797 13.2383,46.2695 0.0390625,99.1992 L 158.789,158.73 l 476.09,0 L 694.41,-0.0195312 z M 0.0390625,138.891 l 0,515.781 39.6914375,39.687 119.0585,-119.07 0,-376.867 L 0.0390625,138.891 z M 634.879,1269.67 l -474.219,0 -158.58969,59.53 c 13.08989,52.77 46.12889,85.82 99.05869,99.06 l 593.281,0 -59.531,-158.59 z m -476.09,-39.69 0,-377.031 -119.0585,-118.91 -39.6914375,39.691 0,515.78 L 158.789,1229.98 z m 515.781,-377.031 0,416.721 59.379,158.59 c 52.891,-13.24 85.973,-46.29 99.211,-99.06 l 0,-555.47 -39.68,-39.691 -118.91,118.91 z m 1031.45,-59.379 79.21,-79.371 -79.21,-79.379 -515.79,0 -79.37,79.379 79.37,79.371 515.79,0 z m 118.9,-99.211 39.69,-39.687 0,-555.4728 C 1851.37,46.2695 1818.28,13.1797 1765.39,-0.0195312 L 1706.02,158.73 l 0,416.559 118.9,119.07 z m -634.69,595.151 0,-436.561 -119.06,-118.91 -39.69,39.691 0,575.31 158.75,-59.53 z m 515.79,-436.561 0,416.721 59.37,158.59 c 52.89,-13.24 85.98,-46.29 99.22,-99.06 l 0,-555.47 -39.69,-39.691 -118.9,118.91 z"
         id="path16"
         style="fill:#000000;fill-opacity:1;fill-rule:nonzero;stroke:none" /></g></g></svg>