<?xml version="1.0" encoding="UTF-8" standalone="no"?>
<svg
   xmlns:dc="http://purl.org/dc/elements/1.1/"
   xmlns:cc="http://creativecommons.org/ns#"
   xmlns:rdf="http://www.w3.org/1999/02/22-rdf-syntax-ns#"
   xmlns:svg="http://www.w3.org/2000/svg"
   xmlns="http://www.w3.org/2000/svg"
   xmlns:sodipodi="http://sodipodi.sourceforge.net/DTD/sodipodi-0.dtd"
   xmlns:inkscape="http://www.inkscape.org/namespaces/inkscape"
   version="1.1"
   width="132.00021"
   height="99.999603"
   viewBox="0 0 132.00021 99.999603"
   id="svg2"
   inkscape:version="0.48.0 r9654"
   sodipodi:docname="fromwav.svg">
  <metadata
     id="metadata55">
    <rdf:RDF>
      <cc:Work
         rdf:about="">
        <dc:format>image/svg+xml</dc:format>
        <dc:type
           rdf:resource="http://purl.org/dc/dcmitype/StillImage" />
      </cc:Work>
    </rdf:RDF>
  </metadata>
  <sodipodi:namedview
     pagecolor="#ffffff"
     bordercolor="#666666"
     borderopacity="1"
     objecttolerance="10"
     gridtolerance="10"
     guidetolerance="10"
     inkscape:pageopacity="0"
     inkscape:pageshadow="2"
     inkscape:window-width="640"
     inkscape:window-height="480"
     id="namedview53"
     showgrid="false"
     fit-margin-top="2"
     fit-margin-left="2"
     fit-margin-right="2"
     fit-margin-bottom="2"
     inkscape:zoom="3.0104167"
     inkscape:cx="65.999998"
     inkscape:cy="49.999591"
     inkscape:window-x="0"
     inkscape:window-y="24"
     inkscape:window-maximized="0"
     inkscape:current-layer="svg2" />
  <desc
     id="desc4">Loudspeaker</desc>
  <!-- Authors: Graphic design: Jeff Bonham (silsor) / SVG Code: Gennaro Prota
      License: See http://en.wikipedia.org/wiki/Image:Sound-icon.svg -->
  <defs
     id="defs6">
    <style
       type="text/css"
       id="style8">
    .basket      {fill:#191919;fill-opacity:0.9}
    .wave_outer  {fill:#7f7f7f;fill-opacity:0.4}
    .wave_middle {fill:#4c4c4c;fill-opacity:0.6}
    .wave_inner  {fill:#191919;fill-opacity:0.7}
    .magnet      {fill:url(#id0)}
    .diaphragm   {fill:url(#id1)}
    .surround    {fill:url(#id2)}
    .in          {fill:url(#id3)}
    .out         {fill:url(#id4)}
   </style>
    <linearGradient
       id="id0"
       gradientUnits="userSpaceOnUse"
       x1="21.7836"
       y1="74.002899"
       x2="21.7836"
       y2="21.9998">
      <stop
         offset="0"
         stop-color="white"
         id="stop11" />
      <stop
         offset="1"
         stop-color="#aaa9a9"
         id="stop13" />
    </linearGradient>
    <linearGradient
       id="id1"
       gradientUnits="userSpaceOnUse"
       x1="59.999802"
       y1="48.000198"
       x2="14.0001"
       y2="48.000198">
      <stop
         offset="0"
         stop-color="#6b6b6b"
         id="stop16" />
      <stop
         offset="0.4"
         stop-color="#909090"
         id="stop18" />
      <stop
         offset="1"
         stop-color="white"
         id="stop20" />
    </linearGradient>
    <linearGradient
       id="id2"
       gradientUnits="userSpaceOnUse"
       x1="61.999901"
       y1="47.999802"
       x2="12"
       y2="47.999802">
      <stop
         offset="0"
         stop-color="#dededd"
         id="stop23" />
      <stop
         offset="0.321569"
         stop-color="#c4c4c3"
         id="stop25" />
      <stop
         offset="1"
         stop-color="#7a7a7a"
         id="stop27" />
    </linearGradient>
    <linearGradient
       id="id3"
       gradientUnits="userSpaceOnUse"
       x1="45.367001"
       y1="46.714802"
       x2="32.773701"
       y2="46.714802">
      <stop
         offset="0"
         stop-color="white"
         id="stop30" />
      <stop
         offset="0.321569"
         stop-color="#d4d4d4"
         id="stop32" />
      <stop
         offset="1"
         stop-color="#c2c1c1"
         id="stop34" />
    </linearGradient>
    <linearGradient
       id="id4"
       gradientUnits="userSpaceOnUse"
       x1="47.977901"
       y1="48.0009"
       x2="24.0226"
       y2="48.0009">
      <stop
         offset="0"
         stop-color="#c3c3c3"
         id="stop37" />
      <stop
         offset="1"
         stop-color="#555555"
         id="stop39" />
    </linearGradient>
  </defs>
  <g
     id="speaker_icon"
     transform="translate(1.9999984,2)">
    <path
       id="bottom_plate"
       class="basket"
       d="M 21.3448,19.9997 C 9.5758,19.9997 0,32.5609 0,47.9983 c 0,15.4404 9.57577,28.0013 21.3448,28.0013 11.7645,0 21.3361,-12.5605 21.3361,-28.0013 0,-15.4374 -9.57162,-27.9986 -21.3361,-27.9986 z"
       inkscape:connector-curvature="0"
       style="fill:#191919;fill-opacity:0.9" />
    <path
       id="magnet"
       class="magnet"
       d="m 21.7847,74.0029 c -10.9285,0 -19.7846,-11.6394 -19.7846,-26.003 0,-14.3618 8.85615,-26 19.7846,-26 10.9243,0 19.7823,11.6383 19.7823,26 0,14.3625 -8.85804,26.003 -19.7823,26.003 z"
       inkscape:connector-curvature="0"
       style="fill:url(#id0)" />
    <path
       id="basket"
       class="basket"
       d="M 37.0003,0 C 22.1136,0 10.0021,21.0882 10.0021,47.0069 c 0,25.9218 12.1122,48.9927 26.9982,48.9927 C 51.8886,96.000734 64,72.9295 64,47.0069 64,21.0881 51.8886,0 37.0003,0 z"
       inkscape:connector-curvature="0"
       style="fill:#191919;fill-opacity:0.9" />
    <path
       id="surround"
       class="surround"
       d="m 37.0003,91.9994 c -13.8077,0 -25.0007,-19.7022 -25.0007,-44.0011 0,-24.2977 11.193,-43.9984 25.0007,-43.9984 13.8073,0 24.9996,19.7007 24.9996,43.9984 0,24.2989 -11.1923,44.0011 -24.9996,44.0011 z"
       inkscape:connector-curvature="0"
       style="fill:url(#id2)" />
    <path
       id="diaphragm"
       class="diaphragm"
       d="M 36.9995,89.9996 C 24.2988,89.9996 14,71.1961 14,47.9998 14,24.803 24.2988,6.0007 36.9995,6.0007 c 12.7033,0 23.0002,18.8035 23.0002,41.9991 0,23.1968 -10.2973,41.9998 -23.0002,41.9998 z"
       inkscape:connector-curvature="0"
       style="fill:url(#id1)" />
    <g
       id="dust_cup">
      <ellipse
         id="in"
         class="in"
         cx="39.070301"
         cy="46.714901"
         rx="6.2966299"
         ry="10.5544"
         sodipodi:cx="39.070301"
         sodipodi:cy="46.714901"
         sodipodi:rx="6.2966299"
         sodipodi:ry="10.5544"
         style="fill:url(#id3)"
         d="m 45.366931,46.714901 c 0,5.829034 -2.819097,10.5544 -6.29663,10.5544 -3.477533,0 -6.29663,-4.725366 -6.29663,-10.5544 0,-5.829034 2.819097,-10.5544 6.29663,-10.5544 3.477533,0 6.29663,4.725366 6.29663,10.5544 z" />
      <path
         id="out"
         class="out"
         d="m 35.9999,68.0626 c -6.61528,0 -11.9777,-8.98277 -11.9777,-20.0628 0,-11.0789 5.36199,-20.0601 11.9777,-20.0601 6.61415,0 11.978,8.98126 11.978,20.0601 0,11.08 -5.36388,20.0628 -11.978,20.0628 z"
         inkscape:connector-curvature="0"
         style="fill:url(#id4)" />
    </g>
    <path
       id="wave_inner"
       class="wave_inner"
       d="m 77.0439,16.4333 c 14.5417,15.7307 14.6747,43.8862 0,62.7153 -3.80484,1.96421 -10.4341,0.21959 -8.78548,-2.0999 11.9618,-16.5407 11.8212,-44.6682 0,-58.2695 -1.6301,-2.3913 6.36319,-3.43973 8.78548,-2.34594 z"
       inkscape:connector-curvature="0"
       style="fill:#191919;fill-opacity:0.7" />
    <path
       id="wave_middle"
       class="wave_middle"
       d="m 97.0435,8.5417 c 14.5417,19.6659 14.6751,54.8653 0,78.4049 -3.80408,2.45555 -10.4333,0.275149 -8.7851,-2.62487 11.9618,-20.6788 11.8212,-55.8434 0,-72.8467 -1.63086,-2.98922 6.36281,-4.30071 8.7851,-2.9329 l 0,-3.78e-4 z"
       inkscape:connector-curvature="0"
       style="fill:#4c4c4c;fill-opacity:0.6" />
    <path
       id="wave_outer"
       class="wave_outer"
       d="m 117.044,0.660659 c 14.5417,23.5936 14.6747,65.8221 0,94.0619 -3.80484,2.94651 -10.4341,0.329951 -8.78548,-3.14947 11.9618,-24.8076 11.8212,-66.9945 0,-87.3933 -1.6301,-3.58638 6.36319,-5.15941 8.78548,-3.5191 z"
       inkscape:connector-curvature="0"
       style="fill:#7f7f7f;fill-opacity:0.4" />
  </g>
</svg>
